# xmcd
#
# Track frame offsets: 
#        150
#        40905
#        66642
#        92570
#        129220
#        157532
#
# Disc length: 2606 seconds
#
# Revision: 1
# Processed by: cddbd v1.5.2PL0 Copyright (c) Steve Scherf et al.
# Submitted via: ExactAudioCopy v1.0b3
#
DISCID=410a2c06
DTITLE=Various Artist - Ample Sampler
DYEAR=2002
DGENRE=Jazz
TTITLE0=Brad Mehldau - Paranoid Android
TTITLE1=Brad Mehldau - Dusty McNugget
TTITLE2=Brad Mehldau - Things Behind The Sun
TTITLE3=Joshua Redman - Molten Soul
TTITLE4=Joshua Redman - Can a Good Thing Last Forever?
TTITLE5=Christian McBride - Technicolor Nightmare
EXTD=YEAR: 2002
EXTT0=
EXTT1=
EXTT2=
EXTT3=
EXTT4=
EXTT5=
PLAYORDER=
